<?xml version="1.0" encoding="utf-8"?>
<!-- Generator: Adobe Illustrator 19.2.1, SVG Export Plug-In . SVG Version: 6.00 Build 0)  -->
<svg version="1.1" xmlns="http://www.w3.org/2000/svg" xmlns:xlink="http://www.w3.org/1999/xlink" x="0px" y="0px"
	 viewBox="0 0 302.7 84.3" style="enable-background:new 0 0 302.7 84.3;" xml:space="preserve">
<style type="text/css">
	.st0{display:none;}
	.st1{display:inline;fill:#3A0679;}
	.st2{fill:#FFFFFF;}
	.st3{fill:#FED263;}
</style>
<g id="Layer_2" class="st0">
	<rect x="-264.3" y="-244.9" class="st1" width="825" height="868"/>
</g>
<g id="Layer_1">
	<g>
		<path class="st2" d="M3,83.5c-1.7,0-3-1.3-3-3V3.2c0-1.7,1.3-3,3-3h31.2c14.5,0.1,25.4,3.6,32.6,10.6c7.2,7,10.8,17.1,10.8,30.4
			c-0.1,13.7-3.8,24.1-11.2,31.4C59,79.8,48.3,83.5,34.2,83.5H3z M25.9,61.3h9.2c5.4,0,9.3-1.7,11.8-5c2.5-3.3,3.8-8.2,3.8-14.7
			c0.1-6.1-1.1-10.8-3.5-14.1c-2.4-3.3-6.5-5.1-12.1-5.1h-9.2V61.3z"/>
		<path class="st2" d="M165.1,3.2c0-1.7,1.3-3,3-3h18.1c1,0,2,0.5,2.5,1.4l20.2,31.9c0.7,1.1,2.1,1.7,3.4,1.3s2.2-1.5,2.2-2.9V3.2
			c0-1.7,1.3-3,3-3h18.7c1.7,0,3,1.3,3,3v77.3c0,1.7-1.3,3-3,3h-17.9c-1,0-2-0.5-2.5-1.4l-20.4-32.2c-0.7-1.1-2.1-1.6-3.4-1.3
			s-2.2,1.5-2.2,2.9v29c0,1.7-1.3,3-3,3h-18.7c-1.7,0-3-1.3-3-3V3.2z"/>
		<g>
			<polygon class="st3" points="113.3,48.9 100.7,36.3 90.6,46.3 102.7,58.4 113.3,69 122.3,59.9 151.1,31.2 141,21.1 			"/>
			<g>
				<path class="st2" d="M120.8,0c7.1,0,13.2,1.1,18.2,3.4c5,2.3,9.2,5.3,12.4,9.2c3.2,3.8,5.6,8.3,7,13.3c1.5,5.1,2.2,10.4,2.2,16
					c0,5.7-0.7,11.1-2.2,16.2c-1.5,5.1-3.8,9.6-7,13.5c-3.2,3.9-7.4,7-12.5,9.2c-5.1,2.3-11.2,3.4-18.3,3.4
					c-7.1,0-13.2-1.1-18.2-3.4c-5-2.3-9.2-5.3-12.4-9.2c-3.2-3.8-5.6-8.3-7-13.3c-1.5-5.1-2.2-10.5-2.2-16.1
					c0-5.6,0.7-10.9,2.2-16.1c1.5-5.1,3.8-9.6,7-13.5c3.2-3.9,7.4-7,12.5-9.2C107.6,1.1,113.7,0,120.8,0z M84.5,42.4
					c0,5.2,0.7,10.1,2,14.8c1.3,4.7,3.4,8.8,6.3,12.4c2.9,3.6,6.6,6.4,11.2,8.5c4.6,2.1,10.1,3.1,16.7,3.1c6.5,0,12.1-1.1,16.8-3.2
					c4.6-2.1,8.4-5,11.3-8.5c2.9-3.6,5-7.7,6.3-12.5c1.3-4.8,2-9.7,2-14.9c0-5.2-0.7-10.1-2-14.8c-1.3-4.7-3.4-8.8-6.3-12.4
					c-2.9-3.6-6.6-6.4-11.3-8.5c-4.6-2.1-10.2-3.2-16.8-3.2c-6.5,0-12.1,1.1-16.7,3.2c-4.6,2.1-8.3,5-11.2,8.6
					c-2.9,3.6-5,7.8-6.3,12.6C85.2,32.2,84.5,37.2,84.5,42.4z"/>
			</g>
		</g>
		<path class="st2" d="M302.7,66.1c0-1.7-1.3-3-3-3h-30v-11h30c1.7,0,3-1.3,3-3v-15c0-1.7-1.3-3-3-3h-30v-10h30c1.7,0,3-1.3,3-3v-15
			c0-1.7-1.3-3-3-3h-53c-1.7,0-3,1.3-3,3v77c0,1.7,1.3,3,3,3h53c1.7,0,3-1.3,3-3V66.1z"/>
	</g>
</g>
</svg>
