<svg id="Layer_1" data-name="Layer 1" xmlns="http://www.w3.org/2000/svg" viewBox="0 0 302.68 84.29"><defs><style>.cls-1{fill:#fff;}.cls-2{fill:#fed263;}</style></defs><title>done-logo</title><path class="cls-1" d="M3,83.46a3,3,0,0,1-3-3V3.17a3,3,0,0,1,3-3H34.18Q56,0.29,66.79,10.79T77.58,41.23q-0.12,20.53-11.2,31.38T34.18,83.46H3ZM25.9,61.3h9.22q8,0,11.84-5t3.79-14.7q0.11-9.1-3.5-14.12T35.11,22.33H25.9v39Z"/><path class="cls-1" d="M165.06,3.17a3,3,0,0,1,3-3h19.75l21.06,33.35a3,3,0,0,0,5.54-1.6V3.17a3,3,0,0,1,3-3h18.73a3,3,0,0,1,3,3V80.46a3,3,0,0,1-3,3H218.27a3,3,0,0,1-2.53-1.39L195.33,49.85a3,3,0,0,0-5.53,1.61v29a3,3,0,0,1-3,3H168.06a3,3,0,0,1-3-3V3.17Z"/><polygon class="cls-2" points="113.26 48.85 100.67 36.26 90.59 46.34 102.68 58.43 113.26 69.01 122.33 59.94 151.05 31.22 140.98 21.14 113.26 48.85"/><path class="cls-1" d="M120.79,0Q131.45,0,139,3.41a34.24,34.24,0,0,1,12.38,9.16,36.62,36.62,0,0,1,7,13.35,56.51,56.51,0,0,1,2.24,16,57.87,57.87,0,0,1-2.24,16.22,37.3,37.3,0,0,1-7,13.5,33.65,33.65,0,0,1-12.46,9.24,44.74,44.74,0,0,1-18.31,3.41q-10.66,0-18.23-3.41A34.15,34.15,0,0,1,90,71.71a36.48,36.48,0,0,1-7-13.35,56.93,56.93,0,0,1-2.24-16.14A57.18,57.18,0,0,1,83,26.16a37.2,37.2,0,0,1,7-13.5,33.64,33.64,0,0,1,12.47-9.24A44.72,44.72,0,0,1,120.79,0ZM84.51,42.38a54.65,54.65,0,0,0,2,14.82,34.34,34.34,0,0,0,6.28,12.42,29.68,29.68,0,0,0,11.17,8.46q6.88,3.11,16.68,3.1A40.11,40.11,0,0,0,137.38,78a30.25,30.25,0,0,0,11.26-8.54A34.37,34.37,0,0,0,154.92,57a55.64,55.64,0,0,0,2-14.9,54.83,54.83,0,0,0-2-14.82,34.45,34.45,0,0,0-6.28-12.42,30.28,30.28,0,0,0-11.26-8.54A40.14,40.14,0,0,0,120.62,3.1q-9.8,0-16.68,3.18A30.06,30.06,0,0,0,92.77,14.9a35.1,35.1,0,0,0-6.28,12.57A55.53,55.53,0,0,0,84.51,42.38Z"/><path class="cls-1" d="M302.68,66.07a3,3,0,0,0-3-3h-30v-11h30a3,3,0,0,0,3-3v-15a3,3,0,0,0-3-3h-30v-10h30a3,3,0,0,0,3-3v-15a3,3,0,0,0-3-3h-56v83h56a3,3,0,0,0,3-3v-14Z"/></svg>